<?xml version="1.0" encoding="UTF-8" standalone="no"?>
<!DOCTYPE svg PUBLIC "-//W3C//DTD SVG 1.1//EN"
 "http://www.w3.org/Graphics/SVG/1.1/DTD/svg11.dtd">
<!-- Generated by graphviz version 2.42.3 (0)
 -->
<!-- Title: classes Pages: 1 -->
<svg width="3013pt" height="965pt"
 viewBox="0.00 0.00 3013.00 965.00" xmlns="http://www.w3.org/2000/svg" xmlns:xlink="http://www.w3.org/1999/xlink">
<g id="graph0" class="graph" transform="scale(1 1) rotate(0) translate(4 961)">
<title>classes</title>
<polygon fill="white" stroke="transparent" points="-4,4 -4,-961 3009,-961 3009,4 -4,4"/>
<!-- 0 -->
<g id="node1" class="node">
<title>0</title>
<polygon fill="none" stroke="black" points="0,-22.5 0,-137.5 747,-137.5 747,-22.5 0,-22.5"/>
<text text-anchor="middle" x="373.5" y="-122.3" font-family="Times,serif" font-size="14.00">LeafSequence</text>
<polyline fill="none" stroke="black" points="0,-114.5 747,-114.5 "/>
<polyline fill="none" stroke="black" points="0,-90.5 747,-90.5 "/>
<text text-anchor="start" x="8" y="-75.3" font-family="Times,serif" font-size="14.00">extract_changed_leaves(output_path, dif_len, overwrite, combination_function)</text>
<text text-anchor="start" x="8" y="-60.3" font-family="Times,serif" font-size="14.00">get_databunch_dataframe(embolism_only, csv_name)</text>
<text text-anchor="start" x="8" y="-45.3" font-family="Times,serif" font-size="14.00">load_extracted_images(load_image)</text>
<text text-anchor="start" x="8" y="-30.3" font-family="Times,serif" font-size="14.00">predict_leaf_sequence(model, x_tile_length, y_tile_length, memory_saving, overwrite, save_prediction)</text>
</g>
<!-- 6 -->
<g id="node7" class="node">
<title>6</title>
<polygon fill="none" stroke="black" points="374,-361 374,-461 615,-461 615,-361 374,-361"/>
<text text-anchor="middle" x="494.5" y="-445.8" font-family="Times,serif" font-size="14.00">_CurveSequenceMixin</text>
<polyline fill="none" stroke="black" points="374,-438 615,-438 "/>
<polyline fill="none" stroke="black" points="374,-414 615,-414 "/>
<text text-anchor="start" x="382" y="-398.8" font-family="Times,serif" font-size="14.00">link_tiles(sort_by_filename)</text>
<text text-anchor="start" x="382" y="-383.8" font-family="Times,serif" font-size="14.00">load_tile_sequence(load_image)</text>
<text text-anchor="start" x="382" y="-368.8" font-family="Times,serif" font-size="14.00">tile_sequence()</text>
</g>
<!-- 0&#45;&gt;6 -->
<g id="edge4" class="edge">
<title>0&#45;&gt;6</title>
<path fill="none" stroke="black" d="M394.3,-137.56C416.27,-197.29 450.74,-291.01 472.98,-351.47"/>
<polygon fill="none" stroke="black" points="469.7,-352.7 476.44,-360.88 476.27,-350.29 469.7,-352.7"/>
</g>
<!-- 9 -->
<g id="node10" class="node">
<title>9</title>
<polygon fill="none" stroke="black" points="741,-196.5 741,-625.5 1220,-625.5 1220,-196.5 741,-196.5"/>
<text text-anchor="middle" x="980.5" y="-610.3" font-family="Times,serif" font-size="14.00">_ImageSequence</text>
<polyline fill="none" stroke="black" points="741,-602.5 1220,-602.5 "/>
<text text-anchor="start" x="749" y="-587.3" font-family="Times,serif" font-size="14.00">creation_mode : bool</text>
<text text-anchor="start" x="749" y="-572.3" font-family="Times,serif" font-size="14.00">embolism_percent_list : list</text>
<text text-anchor="start" x="749" y="-557.3" font-family="Times,serif" font-size="14.00">file_list : NoneType</text>
<text text-anchor="start" x="749" y="-542.3" font-family="Times,serif" font-size="14.00">filename_pattern : NoneType</text>
<text text-anchor="start" x="749" y="-527.3" font-family="Times,serif" font-size="14.00">folder_path : NoneType</text>
<text text-anchor="start" x="749" y="-512.3" font-family="Times,serif" font-size="14.00">has_embolism_list : list</text>
<text text-anchor="start" x="749" y="-497.3" font-family="Times,serif" font-size="14.00">image_objects : list</text>
<text text-anchor="start" x="749" y="-482.3" font-family="Times,serif" font-size="14.00">intersection_list : list</text>
<text text-anchor="start" x="749" y="-467.3" font-family="Times,serif" font-size="14.00">link : NoneType</text>
<text text-anchor="start" x="749" y="-452.3" font-family="Times,serif" font-size="14.00">linked_path_list : list</text>
<text text-anchor="start" x="749" y="-437.3" font-family="Times,serif" font-size="14.00">num_files : int</text>
<text text-anchor="start" x="749" y="-422.3" font-family="Times,serif" font-size="14.00">unique_range : ndarray</text>
<text text-anchor="start" x="749" y="-407.3" font-family="Times,serif" font-size="14.00">unique_range_list : list</text>
<polyline fill="none" stroke="black" points="741,-399.5 1220,-399.5 "/>
<text text-anchor="start" x="749" y="-384.3" font-family="Times,serif" font-size="14.00">binarise_sequence()</text>
<text text-anchor="start" x="749" y="-369.3" font-family="Times,serif" font-size="14.00">get_databunch_dataframe(lseq, mseq, embolism_only, csv_name)</text>
<text text-anchor="start" x="749" y="-354.3" font-family="Times,serif" font-size="14.00">get_eda_dataframe(options, csv_name)</text>
<text text-anchor="start" x="749" y="-339.3" font-family="Times,serif" font-size="14.00">get_embolism_percent_list()</text>
<text text-anchor="start" x="749" y="-324.3" font-family="Times,serif" font-size="14.00">get_has_embolism_list()</text>
<text text-anchor="start" x="749" y="-309.3" font-family="Times,serif" font-size="14.00">get_intersection_list()</text>
<text text-anchor="start" x="749" y="-294.3" font-family="Times,serif" font-size="14.00">get_unique_range_list()</text>
<text text-anchor="start" x="749" y="-279.3" font-family="Times,serif" font-size="14.00">get_unique_sequence_range()</text>
<text text-anchor="start" x="749" y="-264.3" font-family="Times,serif" font-size="14.00">link_sequences(SequenceObject, sort_by_filename)</text>
<text text-anchor="start" x="749" y="-249.3" font-family="Times,serif" font-size="14.00">load_extracted_images(ImageClass, load_image)</text>
<text text-anchor="start" x="749" y="-234.3" font-family="Times,serif" font-size="14.00">plot_profile()</text>
<text text-anchor="start" x="749" y="-219.3" font-family="Times,serif" font-size="14.00">sort_image_objects_by_filename()</text>
<text text-anchor="start" x="749" y="-204.3" font-family="Times,serif" font-size="14.00">unload_extracted_images()</text>
</g>
<!-- 0&#45;&gt;9 -->
<g id="edge5" class="edge">
<title>0&#45;&gt;9</title>
<path fill="none" stroke="black" d="M503.59,-137.6C542.58,-155.43 585.16,-175.77 623.5,-196 659,-214.73 695.9,-235.41 731.93,-256.31"/>
<polygon fill="none" stroke="black" points="730.17,-259.34 740.57,-261.34 733.69,-253.29 730.17,-259.34"/>
</g>
<!-- 2 -->
<g id="node2" class="node">
<title>2</title>
<polygon fill="none" stroke="black" points="2369.5,-45.5 2369.5,-114.5 2641.5,-114.5 2641.5,-45.5 2369.5,-45.5"/>
<text text-anchor="middle" x="2505.5" y="-99.3" font-family="Times,serif" font-size="14.00">LeafTile</text>
<polyline fill="none" stroke="black" points="2369.5,-91.5 2641.5,-91.5 "/>
<text text-anchor="start" x="2377.5" y="-76.3" font-family="Times,serif" font-size="14.00">prediction_array</text>
<polyline fill="none" stroke="black" points="2369.5,-68.5 2641.5,-68.5 "/>
<text text-anchor="start" x="2377.5" y="-53.3" font-family="Times,serif" font-size="14.00">predict_tile(model, memory_saving)</text>
</g>
<!-- 10 -->
<g id="node11" class="node">
<title>10</title>
<polygon fill="none" stroke="black" points="1785.5,-346.5 1785.5,-475.5 2175.5,-475.5 2175.5,-346.5 1785.5,-346.5"/>
<text text-anchor="middle" x="1980.5" y="-460.3" font-family="Times,serif" font-size="14.00">_LeafImage</text>
<polyline fill="none" stroke="black" points="1785.5,-452.5 2175.5,-452.5 "/>
<text text-anchor="start" x="1793.5" y="-437.3" font-family="Times,serif" font-size="14.00">image_array</text>
<text text-anchor="start" x="1793.5" y="-422.3" font-family="Times,serif" font-size="14.00">prediction_array : ndarray</text>
<polyline fill="none" stroke="black" points="1785.5,-414.5 2175.5,-414.5 "/>
<text text-anchor="start" x="1793.5" y="-399.3" font-family="Times,serif" font-size="14.00">binarise_self(prediction)</text>
<text text-anchor="start" x="1793.5" y="-384.3" font-family="Times,serif" font-size="14.00">extract_embolism_percent(prediction, embolism_px)</text>
<text text-anchor="start" x="1793.5" y="-369.3" font-family="Times,serif" font-size="14.00">extract_intersection(prediction, combined_image)</text>
<text text-anchor="start" x="1793.5" y="-354.3" font-family="Times,serif" font-size="14.00">extract_unique_range(prediction)</text>
</g>
<!-- 2&#45;&gt;10 -->
<g id="edge6" class="edge">
<title>2&#45;&gt;10</title>
<path fill="none" stroke="black" d="M2434.79,-114.52C2401.24,-129.65 2360.29,-147 2322.5,-160 2262.56,-180.62 2239.12,-163.83 2184.5,-196 2123.46,-231.95 2068.94,-291.34 2031.66,-338.44"/>
<polygon fill="none" stroke="black" points="2028.77,-336.45 2025.36,-346.49 2034.28,-340.77 2028.77,-336.45"/>
</g>
<!-- 12 -->
<g id="node13" class="node">
<title>12</title>
<polygon fill="none" stroke="black" points="2502,-369 2502,-453 3005,-453 3005,-369 2502,-369"/>
<text text-anchor="middle" x="2753.5" y="-437.8" font-family="Times,serif" font-size="14.00">_TileMixin</text>
<polyline fill="none" stroke="black" points="2502,-430 3005,-430 "/>
<text text-anchor="start" x="2510" y="-414.8" font-family="Times,serif" font-size="14.00">image_array</text>
<text text-anchor="start" x="2510" y="-399.8" font-family="Times,serif" font-size="14.00">padded : bool</text>
<polyline fill="none" stroke="black" points="2502,-392 3005,-392 "/>
<text text-anchor="start" x="2510" y="-376.8" font-family="Times,serif" font-size="14.00">create_tile(length_x, length_y, x_range, y_range, filepath, overwrite)</text>
</g>
<!-- 2&#45;&gt;12 -->
<g id="edge7" class="edge">
<title>2&#45;&gt;12</title>
<path fill="none" stroke="black" d="M2530.87,-114.66C2574.8,-172.93 2665.18,-292.83 2716.24,-360.57"/>
<polygon fill="none" stroke="black" points="2713.75,-363.09 2722.57,-368.97 2719.34,-358.87 2713.75,-363.09"/>
</g>
<!-- 1 -->
<g id="node3" class="node">
<title>1</title>
<polygon fill="none" stroke="black" points="1189.5,-0.5 1189.5,-159.5 1863.5,-159.5 1863.5,-0.5 1189.5,-0.5"/>
<text text-anchor="middle" x="1526.5" y="-144.3" font-family="Times,serif" font-size="14.00">Leaf</text>
<polyline fill="none" stroke="black" points="1189.5,-136.5 1863.5,-136.5 "/>
<text text-anchor="start" x="1197.5" y="-121.3" font-family="Times,serif" font-size="14.00">image_array : ndarray, NoneType</text>
<text text-anchor="start" x="1197.5" y="-106.3" font-family="Times,serif" font-size="14.00">parents : NoneType</text>
<text text-anchor="start" x="1197.5" y="-91.3" font-family="Times,serif" font-size="14.00">path</text>
<text text-anchor="start" x="1197.5" y="-76.3" font-family="Times,serif" font-size="14.00">prediction_array : ndarray</text>
<polyline fill="none" stroke="black" points="1189.5,-68.5 1863.5,-68.5 "/>
<text text-anchor="start" x="1197.5" y="-53.3" font-family="Times,serif" font-size="14.00">extract_me(filepath, combination_function, overwrite)</text>
<text text-anchor="start" x="1197.5" y="-38.3" font-family="Times,serif" font-size="14.00">load_extracted_images(load_image)</text>
<text text-anchor="start" x="1197.5" y="-23.3" font-family="Times,serif" font-size="14.00">predict_leaf(model, x_tile_length, y_tile_length, memory_saving, overwrite, save_prediction)</text>
<text text-anchor="start" x="1197.5" y="-8.3" font-family="Times,serif" font-size="14.00">tile_me(length_x, stride_x, length_y, stride_y, output_path)</text>
</g>
<!-- 7 -->
<g id="node8" class="node">
<title>7</title>
<polygon fill="none" stroke="black" points="1261.5,-361.5 1261.5,-460.5 1767.5,-460.5 1767.5,-361.5 1261.5,-361.5"/>
<text text-anchor="middle" x="1514.5" y="-445.3" font-family="Times,serif" font-size="14.00">_FullImageMixin</text>
<polyline fill="none" stroke="black" points="1261.5,-437.5 1767.5,-437.5 "/>
<text text-anchor="start" x="1269.5" y="-422.3" font-family="Times,serif" font-size="14.00">file_list</text>
<text text-anchor="start" x="1269.5" y="-407.3" font-family="Times,serif" font-size="14.00">num_files</text>
<polyline fill="none" stroke="black" points="1261.5,-399.5 1767.5,-399.5 "/>
<text text-anchor="start" x="1269.5" y="-384.3" font-family="Times,serif" font-size="14.00">load_tile_paths(folder_path, filename_pattern)</text>
<text text-anchor="start" x="1269.5" y="-369.3" font-family="Times,serif" font-size="14.00">tile_me(TileClass, length_x, stride_x, length_y, stride_y, output_path)</text>
</g>
<!-- 1&#45;&gt;7 -->
<g id="edge1" class="edge">
<title>1&#45;&gt;7</title>
<path fill="none" stroke="black" d="M1523.63,-159.8C1521.48,-218.62 1518.6,-297.7 1516.65,-351.09"/>
<polygon fill="none" stroke="black" points="1513.14,-351.29 1516.27,-361.41 1520.13,-351.55 1513.14,-351.29"/>
</g>
<!-- 1&#45;&gt;9 -->
<g id="edge2" class="edge">
<title>1&#45;&gt;9</title>
<path fill="none" stroke="black" d="M1321.87,-159.65C1298.01,-170.93 1274.4,-183.11 1252.5,-196 1244.61,-200.64 1236.69,-205.49 1228.79,-210.51"/>
<polygon fill="none" stroke="black" points="1226.73,-207.67 1220.21,-216.01 1230.52,-213.56 1226.73,-207.67"/>
</g>
<!-- 1&#45;&gt;10 -->
<g id="edge3" class="edge">
<title>1&#45;&gt;10</title>
<path fill="none" stroke="black" d="M1717.45,-159.52C1738.03,-170.69 1758.13,-182.88 1776.5,-196 1832.77,-236.19 1886.3,-293.34 1924.4,-338.47"/>
<polygon fill="none" stroke="black" points="1921.75,-340.76 1930.86,-346.17 1927.12,-336.26 1921.75,-340.76"/>
</g>
<!-- 3 -->
<g id="node4" class="node">
<title>3</title>
<polygon fill="none" stroke="black" points="765.5,-23 765.5,-137 1171.5,-137 1171.5,-23 765.5,-23"/>
<text text-anchor="middle" x="968.5" y="-121.8" font-family="Times,serif" font-size="14.00">MaskSequence</text>
<polyline fill="none" stroke="black" points="765.5,-114 1171.5,-114 "/>
<text text-anchor="start" x="773.5" y="-98.8" font-family="Times,serif" font-size="14.00">mpf_path : NoneType</text>
<text text-anchor="start" x="773.5" y="-83.8" font-family="Times,serif" font-size="14.00">num_files</text>
<polyline fill="none" stroke="black" points="765.5,-76 1171.5,-76 "/>
<text text-anchor="start" x="773.5" y="-60.8" font-family="Times,serif" font-size="14.00">extract_mask_from_multipage(output_path, overwrite)</text>
<text text-anchor="start" x="773.5" y="-45.8" font-family="Times,serif" font-size="14.00">get_databunch_dataframe(embolism_only, csv_name)</text>
<text text-anchor="start" x="773.5" y="-30.8" font-family="Times,serif" font-size="14.00">load_extracted_images(load_image)</text>
</g>
<!-- 3&#45;&gt;6 -->
<g id="edge11" class="edge">
<title>3&#45;&gt;6</title>
<path fill="none" stroke="black" d="M836.3,-137C801.13,-154.06 763.92,-174.14 731.5,-196 662.99,-242.18 593.93,-307.11 548.18,-353.32"/>
<polygon fill="none" stroke="black" points="545.56,-350.99 541.04,-360.57 550.55,-355.9 545.56,-350.99"/>
</g>
<!-- 3&#45;&gt;9 -->
<g id="edge12" class="edge">
<title>3&#45;&gt;9</title>
<path fill="none" stroke="black" d="M970.55,-137.18C971.08,-151.68 971.68,-168.2 972.32,-185.77"/>
<polygon fill="none" stroke="black" points="968.84,-186.36 972.7,-196.23 975.84,-186.11 968.84,-186.36"/>
</g>
<!-- 4 -->
<g id="node5" class="node">
<title>4</title>
<polygon fill="none" stroke="black" points="1881.5,-23 1881.5,-137 2313.5,-137 2313.5,-23 1881.5,-23"/>
<text text-anchor="middle" x="2097.5" y="-121.8" font-family="Times,serif" font-size="14.00">Mask</text>
<polyline fill="none" stroke="black" points="1881.5,-114 2313.5,-114 "/>
<text text-anchor="start" x="1889.5" y="-98.8" font-family="Times,serif" font-size="14.00">image_array : ndarray</text>
<text text-anchor="start" x="1889.5" y="-83.8" font-family="Times,serif" font-size="14.00">path</text>
<polyline fill="none" stroke="black" points="1881.5,-76 2313.5,-76 "/>
<text text-anchor="start" x="1889.5" y="-60.8" font-family="Times,serif" font-size="14.00">create_mask(filepath, image, overwrite, binarise)</text>
<text text-anchor="start" x="1889.5" y="-45.8" font-family="Times,serif" font-size="14.00">load_extracted_images(load_image)</text>
<text text-anchor="start" x="1889.5" y="-30.8" font-family="Times,serif" font-size="14.00">tile_me(length_x, stride_x, length_y, stride_y, output_path)</text>
</g>
<!-- 4&#45;&gt;7 -->
<g id="edge8" class="edge">
<title>4&#45;&gt;7</title>
<path fill="none" stroke="black" d="M1937.23,-137.11C1860.97,-164.03 1784.54,-191.46 1776.5,-196 1698.93,-239.84 1621.29,-306.88 1570.9,-354.22"/>
<polygon fill="none" stroke="black" points="1568.22,-351.94 1563.36,-361.35 1573.03,-357.02 1568.22,-351.94"/>
</g>
<!-- 4&#45;&gt;9 -->
<g id="edge9" class="edge">
<title>4&#45;&gt;9</title>
<path fill="none" stroke="black" d="M1956.96,-137.09C1929.34,-146.18 1900.31,-154.43 1872.5,-160 1737.18,-187.12 1381.55,-147.08 1252.5,-196 1244.9,-198.88 1237.33,-202.06 1229.83,-205.49"/>
<polygon fill="none" stroke="black" points="1227.91,-202.53 1220.37,-209.97 1230.9,-208.85 1227.91,-202.53"/>
</g>
<!-- 11 -->
<g id="node12" class="node">
<title>11</title>
<polygon fill="none" stroke="black" points="2193.5,-354 2193.5,-468 2483.5,-468 2483.5,-354 2193.5,-354"/>
<text text-anchor="middle" x="2338.5" y="-452.8" font-family="Times,serif" font-size="14.00">_MaskImage</text>
<polyline fill="none" stroke="black" points="2193.5,-445 2483.5,-445 "/>
<text text-anchor="start" x="2201.5" y="-429.8" font-family="Times,serif" font-size="14.00">image_array</text>
<polyline fill="none" stroke="black" points="2193.5,-422 2483.5,-422 "/>
<text text-anchor="start" x="2201.5" y="-406.8" font-family="Times,serif" font-size="14.00">binarise_self()</text>
<text text-anchor="start" x="2201.5" y="-391.8" font-family="Times,serif" font-size="14.00">extract_embolism_percent()</text>
<text text-anchor="start" x="2201.5" y="-376.8" font-family="Times,serif" font-size="14.00">extract_intersection(combined_image)</text>
<text text-anchor="start" x="2201.5" y="-361.8" font-family="Times,serif" font-size="14.00">extract_unique_range()</text>
</g>
<!-- 4&#45;&gt;11 -->
<g id="edge10" class="edge">
<title>4&#45;&gt;11</title>
<path fill="none" stroke="black" d="M2140.47,-137.24C2154.59,-155.87 2170.3,-176.76 2184.5,-196 2221.32,-245.89 2262.29,-302.91 2292.72,-345.54"/>
<polygon fill="none" stroke="black" points="2290,-347.75 2298.66,-353.86 2295.7,-343.69 2290,-347.75"/>
</g>
<!-- 5 -->
<g id="node6" class="node">
<title>5</title>
<polygon fill="none" stroke="black" points="2688,-45 2688,-115 2769,-115 2769,-45 2688,-45"/>
<text text-anchor="middle" x="2728.5" y="-99.8" font-family="Times,serif" font-size="14.00">MaskTile</text>
<polyline fill="none" stroke="black" points="2688,-92 2769,-92 "/>
<polyline fill="none" stroke="black" points="2688,-68 2769,-68 "/>
<text text-anchor="middle" x="2728.5" y="-52.8" font-family="Times,serif" font-size="14.00"> </text>
</g>
<!-- 5&#45;&gt;11 -->
<g id="edge13" class="edge">
<title>5&#45;&gt;11</title>
<path fill="none" stroke="black" d="M2702.61,-115.06C2688.8,-130.98 2670.53,-148.83 2650.5,-160 2587.97,-194.86 2553.2,-156.49 2493.5,-196 2438.04,-232.71 2395.69,-296.47 2369.38,-344.87"/>
<polygon fill="none" stroke="black" points="2366.28,-343.25 2364.65,-353.72 2372.45,-346.55 2366.28,-343.25"/>
</g>
<!-- 5&#45;&gt;12 -->
<g id="edge14" class="edge">
<title>5&#45;&gt;12</title>
<path fill="none" stroke="black" d="M2731.1,-115.28C2735.51,-173.28 2744.46,-291.06 2749.61,-358.85"/>
<polygon fill="none" stroke="black" points="2746.13,-359.18 2750.38,-368.88 2753.11,-358.65 2746.13,-359.18"/>
</g>
<!-- 8 -->
<g id="node9" class="node">
<title>8</title>
<polygon fill="none" stroke="black" points="1979,-662.5 1979,-956.5 2340,-956.5 2340,-662.5 1979,-662.5"/>
<text text-anchor="middle" x="2159.5" y="-941.3" font-family="Times,serif" font-size="14.00">_Image</text>
<polyline fill="none" stroke="black" points="1979,-933.5 2340,-933.5 "/>
<text text-anchor="start" x="1987" y="-918.3" font-family="Times,serif" font-size="14.00">embolism_percent : NoneType</text>
<text text-anchor="start" x="1987" y="-903.3" font-family="Times,serif" font-size="14.00">has_embolism : NoneType, bool</text>
<text text-anchor="start" x="1987" y="-888.3" font-family="Times,serif" font-size="14.00">image_array : NoneType, ndarray</text>
<text text-anchor="start" x="1987" y="-873.3" font-family="Times,serif" font-size="14.00">image_objects : list</text>
<text text-anchor="start" x="1987" y="-858.3" font-family="Times,serif" font-size="14.00">intersection : NoneType</text>
<text text-anchor="start" x="1987" y="-843.3" font-family="Times,serif" font-size="14.00">link : NoneType</text>
<text text-anchor="start" x="1987" y="-828.3" font-family="Times,serif" font-size="14.00">path : NoneType</text>
<text text-anchor="start" x="1987" y="-813.3" font-family="Times,serif" font-size="14.00">sequence_parent : NoneType</text>
<text text-anchor="start" x="1987" y="-798.3" font-family="Times,serif" font-size="14.00">unique_range : NoneType, ndarray</text>
<polyline fill="none" stroke="black" points="1979,-790.5 2340,-790.5 "/>
<text text-anchor="start" x="1987" y="-775.3" font-family="Times,serif" font-size="14.00">binarise_self(image)</text>
<text text-anchor="start" x="1987" y="-760.3" font-family="Times,serif" font-size="14.00">extract_embolism_percent(image, embolism_px)</text>
<text text-anchor="start" x="1987" y="-745.3" font-family="Times,serif" font-size="14.00">extract_has_embolism(embolism_px)</text>
<text text-anchor="start" x="1987" y="-730.3" font-family="Times,serif" font-size="14.00">extract_intersection(image, combined_image)</text>
<text text-anchor="start" x="1987" y="-715.3" font-family="Times,serif" font-size="14.00">extract_unique_range(image)</text>
<text text-anchor="start" x="1987" y="-700.3" font-family="Times,serif" font-size="14.00">link_me(image)</text>
<text text-anchor="start" x="1987" y="-685.3" font-family="Times,serif" font-size="14.00">load_image()</text>
<text text-anchor="start" x="1987" y="-670.3" font-family="Times,serif" font-size="14.00">show()</text>
</g>
<!-- 10&#45;&gt;8 -->
<g id="edge15" class="edge">
<title>10&#45;&gt;8</title>
<path fill="none" stroke="black" d="M2009.26,-475.7C2030.83,-523.49 2061.32,-591.02 2089.2,-652.78"/>
<polygon fill="none" stroke="black" points="2086.17,-654.57 2093.47,-662.24 2092.55,-651.69 2086.17,-654.57"/>
</g>
<!-- 11&#45;&gt;8 -->
<g id="edge16" class="edge">
<title>11&#45;&gt;8</title>
<path fill="none" stroke="black" d="M2313.04,-468.39C2291.33,-516.48 2259.07,-587.95 2229.71,-652.98"/>
<polygon fill="none" stroke="black" points="2226.51,-651.56 2225.59,-662.11 2232.89,-654.44 2226.51,-651.56"/>
</g>
</g>
</svg>
