<?xml version="1.0" encoding="UTF-8" standalone="no"?>
<svg
   xmlns:dc="http://purl.org/dc/elements/1.1/"
   xmlns:cc="http://creativecommons.org/ns#"
   xmlns:rdf="http://www.w3.org/1999/02/22-rdf-syntax-ns#"
   xmlns:svg="http://www.w3.org/2000/svg"
   xmlns="http://www.w3.org/2000/svg"
   xmlns:sodipodi="http://sodipodi.sourceforge.net/DTD/sodipodi-0.dtd"
   xmlns:inkscape="http://www.inkscape.org/namespaces/inkscape"
   inkscape:version="1.0 (4035a4fb49, 2020-05-01)"
   sodipodi:docname="noun_monstera_2020761.svg"
   id="svg8"
   xml:space="preserve"
   viewBox="0 0 128 128"
   y="0px"
   x="0px"
   version="1.1"
   width="128"
   height="128"><metadata
     id="metadata14"><rdf:RDF><cc:Work
         rdf:about=""><dc:format>image/svg+xml</dc:format><dc:type
           rdf:resource="http://purl.org/dc/dcmitype/StillImage" /><dc:title></dc:title></cc:Work></rdf:RDF></metadata><defs
     id="defs12" /><sodipodi:namedview
     inkscape:current-layer="svg8"
     inkscape:window-maximized="1"
     inkscape:window-y="0"
     inkscape:window-x="0"
     inkscape:cy="62.5"
     inkscape:cx="21.066434"
     inkscape:zoom="5.72"
     showgrid="false"
     id="namedview10"
     inkscape:window-height="1001"
     inkscape:window-width="1920"
     inkscape:pageshadow="2"
     inkscape:pageopacity="0"
     guidetolerance="10"
     gridtolerance="10"
     objecttolerance="10"
     borderopacity="1"
     bordercolor="#666666"
     pagecolor="#ffffff"
     inkscape:document-rotation="0" /><path
     style="fill:#ffffff;stroke-width:1.67013"
     id="path2"
     d="m 124.7564,53.197245 c -0.1709,-0.326434 -0.51269,-0.489651 -1.02538,-0.652866 -0.34179,0 -0.85448,0.163215 -1.02538,0.326432 l -1.53807,1.305729 c -0.68359,0.652864 -1.36717,1.632162 -1.70897,2.448241 -0.1709,0.326434 -0.34179,0.489649 -0.51269,0.489649 -0.1709,0 -0.51269,0.163217 -0.68359,-0.163215 -0.34179,-0.163217 -0.51268,-0.652866 -0.34179,-0.979298 0.51269,-1.142513 1.19628,-2.285025 2.05076,-3.101106 l 2.05076,-2.285025 c 0.51269,-0.489647 0.51269,-1.142511 0,-1.795377 -1.87987,-2.12181 -4.10152,-3.590753 -6.66497,-4.733265 -0.5127,-0.163217 -1.19628,-0.163217 -1.53807,0.32643 l -2.05076,2.285025 c -1.02539,1.142513 -1.87987,2.448242 -2.56346,3.917187 -0.1709,0.326433 -0.51269,0.489649 -0.68359,0.489649 -0.17089,0 -0.51268,0.163217 -0.85448,-0.163216 -0.51269,-0.326433 -0.68359,-0.81608 -0.3418,-1.305729 l 0.1709,-0.326432 c 0.68359,-1.305729 1.53807,-2.611459 2.56346,-3.590754 l 1.02538,-0.979297 c 0.34179,-0.326433 0.51269,-0.81608 0.34179,-1.305729 -0.1709,-0.489647 -0.51269,-0.816079 -1.02539,-0.979296 -5.98137,-1.142513 -10.2538,-0.489648 -12.646355,2.121809 -2.221659,2.285025 -2.563453,5.386131 -2.392555,7.671156 L 93.482284,51.075435 C 93.140491,50.749002 92.6278,50.585786 92.286008,50.422569 l -8.032151,-3.917185 c -4.956008,-2.44824 -10.595603,-2.12181 -15.03892,0.326432 v -0.163217 c 0,-3.590753 0.854485,-7.181508 2.563453,-10.282612 0.683587,2.448242 1.879864,5.222914 4.614214,6.855074 1.538072,0.979298 3.24704,1.30573 5.297801,1.30573 2.734349,0 5.810492,-0.816079 9.399324,-2.448241 0.512691,-0.163216 0.683588,-0.652864 0.854485,-1.142513 0,-0.489648 -0.170897,-0.979295 -0.683588,-1.142512 l -1.538071,-0.816081 c -1.538072,-0.979295 -2.905246,-2.12181 -3.930627,-3.427538 l -0.341794,-0.326432 c -0.512689,-0.489648 -0.341792,-1.305728 0,-1.795378 0.341794,-0.32643 0.683588,-0.489647 1.196278,-0.489647 0.512691,0 0.854485,0.163217 1.025382,0.489647 1.196276,1.30573 2.56345,2.611458 3.930626,3.590755 l 2.905246,1.958593 c 0.512689,0.326432 1.196277,0.326432 1.708968,0 2.563452,-1.958593 4.443316,-4.243618 5.810496,-7.018291 0.34179,-0.652865 0.17089,-1.305729 -0.5127,-1.632161 l -3.076138,-1.958594 c -1.196276,-0.81608 -2.392555,-1.795376 -3.24704,-2.937889 -0.341792,-0.489648 -0.341792,-0.979296 0.170898,-1.468946 0.341793,-0.326432 0.683587,-0.326432 0.854484,-0.326432 0.170897,0 0.683587,0.163217 0.854485,0.489649 0.683586,0.979296 1.538071,1.632161 2.563452,2.285025 l 2.050759,1.142513 c 0.3418,0.163216 0.85449,0.163216 1.19627,0.163216 0.3418,-0.163216 0.6836,-0.489648 0.85449,-0.81608 C 108.00852,15.657546 100.48906,4.7220675 100.14726,4.2324193 99.976363,4.0692032 99.805466,3.9059872 99.634571,3.742771 99.12188,3.4163389 87.159103,-2.7858726 75.709017,2.1106101 75.367223,2.2738262 75.02543,2.6002584 75.02543,2.9266907 c -0.170897,0.326432 0,0.8160803 0.170896,1.1425125 L 76.5635,6.0277963 c 0.683588,0.9792972 1.538073,1.7953777 2.563452,2.285026 0.341795,0.1632159 0.512692,0.6528642 0.512692,0.8160803 0,0.1632165 0,0.6528648 -0.341795,0.9792964 -0.341794,0.326433 -1.025381,0.489648 -1.538071,0.163217 C 76.392604,9.4553352 75.367223,8.6392542 74.341841,7.4967417 L 71.949286,4.7220675 C 71.436596,4.2324193 70.753009,4.0692032 70.240319,4.3956354 67.505969,5.8645802 65.113414,7.98639 63.404446,10.597847 c -0.341794,0.489648 -0.341794,1.142513 0,1.632162 l 2.221659,2.611456 c 1.196277,1.305728 2.563452,2.611456 4.101522,3.590753 0.341795,0.163215 0.512692,0.652863 0.683589,0.979296 0,0.326432 0,0.816079 -0.341794,1.142512 -0.512691,0.48965 -1.367176,0.652865 -1.879865,0.163217 l -0.512691,-0.816082 c -1.538071,-0.979296 -2.734349,-2.121808 -3.930625,-3.590753 l -1.025382,-1.305727 c -0.341794,-0.326432 -0.854485,-0.652864 -1.367174,-0.489648 -0.512691,0 -0.854484,0.326432 -1.025381,0.81608 -2.563453,6.038993 -2.563453,10.77226 0,14.036583 2.563451,3.264321 7.006769,3.917185 9.741118,4.0804 -2.392556,4.080403 -3.759731,8.487238 -3.759731,13.220503 v 2.12181 c -1.196277,0.979298 -2.221658,2.285026 -3.076142,3.590755 -1.367175,2.285025 -2.050761,4.733266 -2.050761,7.181508 V 70.008501 H 58.619335 V 56.135134 c 0,-2.937889 -1.367174,-5.712565 -3.588833,-7.671157 -2.392555,-1.958593 -5.297802,-2.774673 -8.54484,-2.44824 l -3.75973,0.652862 c 1.196277,-2.285025 2.563451,-5.875778 1.196277,-9.303316 -1.538072,-3.75397 -5.639595,-6.202212 -12.475467,-7.344725 -0.512691,-0.163215 -1.025381,0.163217 -1.367173,0.489651 -0.341795,0.32643 -0.341795,0.816079 -0.170897,1.305727 l 0.683585,1.63216 c 0.683588,1.632163 1.025382,3.264323 1.025382,5.0597 v 0.489648 c 0,0.652864 -0.512691,1.30573 -1.196278,1.468945 -0.341792,0 -0.854484,0 -1.196278,-0.326432 -0.341793,-0.326432 -0.51269,-0.652866 -0.51269,-0.979296 0,-1.795378 -0.341794,-3.42754 -1.02538,-5.059699 l -1.196279,-3.264323 c -0.170897,-0.489647 -0.854484,-0.979296 -1.367173,-0.816081 -3.247041,0.163217 -6.323183,0.816081 -9.057531,2.285026 -0.683588,0.326433 -0.854485,0.979297 -0.683588,1.632162 l 1.196278,3.427537 c 0.512689,1.305729 0.683587,2.774674 0.683587,4.243618 0,0.489649 -0.341795,0.979298 -1.025381,1.142513 -0.51269,0.163217 -0.854484,-0.163215 -1.025381,-0.163215 -0.170897,-0.163217 -0.512691,-0.489649 -0.341794,-0.816082 0,-1.142513 -0.170897,-2.285026 -0.683587,-3.264321 l -1.025381,-2.121809 c -0.170897,-0.326433 -0.51269,-0.652866 -0.854485,-0.652866 -0.341793,-0.163215 -0.854483,0 -1.196277,0.163217 C 1.0271089,42.261767 0.34352166,55.319053 0.34352166,55.808702 c 0,0.163215 0,0.489647 0.17089682,0.652862 0.1708968,0.489651 5.98138862,12.404424 18.28595952,14.852666 0.341794,0 0.854484,0 1.196278,-0.326433 0.341794,-0.163215 0.512691,-0.652864 0.512691,-0.979296 l 0.170897,-2.285026 c 0,-1.142512 -0.170897,-2.285025 -0.683588,-3.26432 -0.170897,-0.48965 0,-0.816083 0,-0.979298 0.170896,-0.163215 0.341794,-0.489647 0.854483,-0.652864 0.512691,-0.163215 1.025381,0.163217 1.367176,0.652864 0.51269,1.305728 0.854484,2.774674 1.025379,4.243618 l 0.170897,3.590755 c 0,0.652865 0.512691,1.142513 1.196279,1.305728 0.683588,0 1.53807,0.163217 2.221659,0.163217 2.392554,0 4.78511,-0.326432 7.006768,-1.142513 0.512691,-0.163217 1.025382,-0.652865 0.854486,-1.305729 l -0.170898,-3.427538 c -0.170897,-1.795377 -0.512691,-3.427538 -1.025381,-5.059698 -0.170897,-0.326432 -0.170897,-0.81608 0.170897,-1.142512 0.170896,-0.326433 0.51269,-0.652866 1.025382,-0.652866 0.683585,-0.163215 1.367172,0.326433 1.708967,0.816081 l 0.170897,0.489648 c 0.683587,1.632162 0.854484,3.264322 0.854484,5.0597 v 1.63216 c 0,0.489648 0.341792,0.979297 0.683587,1.142512 0.51269,0.163217 1.025381,0.163217 1.367175,0 5.81049,-3.427538 8.715737,-7.344723 8.715737,-11.26191 0,-3.590753 -2.563453,-6.528643 -4.614214,-8.32402 l 3.759728,-0.652864 c 2.22166,-0.326432 4.443319,0.326432 6.152287,1.795376 1.708967,1.468945 2.734349,3.427538 2.734349,5.712562 V 70.334933 H 40.846066 c -0.683587,0 -1.367173,0.652864 -1.367173,1.305729 v 33.132868 c 0,7.34472 6.323181,13.38372 14.013538,13.38372 h 18.627752 c 7.690357,0 14.013539,-6.039 14.013539,-13.38372 V 71.477445 c 0,-0.652863 -0.683588,-1.305727 -1.367174,-1.305727 H 69.214937 V 49.932922 c 3.75973,-2.774673 9.057531,-3.427538 13.671747,-1.142513 l 8.032149,3.917185 c 0.341793,0.163217 0.683587,0.326434 1.025381,0.652866 l 1.879865,1.142512 c -2.221659,0.816081 -5.126905,2.285026 -6.323182,5.222915 -1.367175,3.264323 -0.341794,7.344725 3.247039,11.914775 0.341793,0.326433 0.854484,0.652864 1.367174,0.489648 0.51269,0 0.854484,-0.326433 1.196277,-0.81608 l 0.512692,-1.305729 c 0.51269,-1.305728 1.367173,-2.611458 2.392555,-3.75397 l 0.341793,-0.326432 c 0.341794,-0.326432 1.025381,-0.489649 1.367174,-0.163217 0.341794,0.163217 0.512691,0.489649 0.512691,0.652866 0,0.163215 0,0.489647 -0.341794,0.816079 -1.025379,1.142513 -1.879864,2.448241 -2.563452,3.917186 l -1.367173,2.774675 c -0.170897,0.489647 -0.170897,1.142512 0.341793,1.468944 2.050761,1.795376 4.443317,3.101106 7.177664,3.75397 0.68359,0.163215 1.36717,-0.163217 1.70897,-0.652864 l 1.36717,-2.774674 c 0.51269,-1.142513 1.19628,-2.121809 2.22166,-3.101106 0.34179,-0.326432 0.68359,-0.326432 1.02539,-0.163215 0.34179,0.163215 0.34179,0.489647 0.34179,0.652864 0,0.163215 0,0.489648 -0.1709,0.652864 -0.68359,0.652864 -1.36718,1.632161 -1.70896,2.611457 l -0.68359,1.795377 c -0.5127,0.489648 -0.5127,0.979297 -0.1709,1.305729 0.34179,0.326432 0.51269,0.489649 1.02538,0.652864 1.02538,0.163217 2.05076,0.163217 3.07614,0.163217 9.39933,0 16.40609,-6.365427 16.74789,-6.69186 0.1709,-0.163217 0.34179,-0.326433 0.34179,-0.489648 0.1709,-0.326432 4.10153,-11.26191 -2.05076,-19.912362 z M 62.549962,27.735534 c -1.538071,-1.958593 -1.708968,-5.059699 -0.512691,-9.140101 1.196278,1.305728 2.563452,2.611458 3.930628,3.590755 l 0.341792,0.32643 c 1.708969,1.142513 4.101525,0.816083 5.468699,-0.652862 0.854484,-0.81608 1.196277,-1.958595 1.025381,-3.264323 -0.170897,-1.142512 -0.854485,-2.285025 -1.879865,-2.937887 -1.367175,-0.816081 -2.392555,-1.795377 -3.417937,-2.937889 l -1.53807,-1.958593 c 1.196277,-1.4689449 2.734347,-2.93789 4.27242,-3.9171866 l 1.538071,1.7953768 c 1.196277,1.3057293 2.563451,2.4482408 4.101522,3.4275378 1.538072,0.979297 3.759732,0.652865 4.956008,-0.652864 0.854485,-0.816081 1.196278,-1.9585928 1.025382,-3.1011057 C 81.690405,7.1703095 81.006817,6.1910129 79.981437,5.538148 79.297849,5.2117158 78.785158,4.5588514 78.272468,4.0692032 V 3.5795549 c 8.886635,-2.93788957 17.944166,1.1425126 19.653133,1.9585931 1.025382,1.6321615 5.981389,9.956182 3.588829,18.606632 l -0.51269,-0.326432 c -0.68358,-0.326432 -1.367169,-0.81608 -1.708963,-1.468945 -0.683587,-0.979297 -1.708969,-1.468944 -2.905246,-1.63216 -1.196279,0 -2.392555,0.326433 -3.076144,1.142513 -1.196277,1.305728 -1.367173,3.26432 -0.341793,4.733266 1.025382,1.468944 2.392556,2.611457 3.930627,3.590753 l 2.050762,1.305729 c -1.025382,1.632162 -2.221659,3.101105 -3.759731,4.406834 l -2.050761,-1.305729 c -1.196277,-0.81608 -2.392555,-1.795375 -3.417936,-3.101105 -0.683587,-0.979295 -1.879866,-1.468946 -3.076143,-1.468946 -1.196278,0 -2.392555,0.489651 -3.24704,1.30573 -1.367174,1.468946 -1.53807,3.753971 -0.170897,5.222916 l 0.341794,0.32643 c 1.196279,1.30573 2.392556,2.611457 3.930628,3.590755 -4.101525,1.468945 -7.348563,1.632161 -9.570221,0.326432 -3.24704,-1.958592 -3.759732,-6.528642 -3.930628,-8.32402 0.51269,-0.81608 1.196278,-1.468945 1.879864,-2.121809 L 94.336769,11.413928 c 0.512691,-0.489648 0.512691,-1.305729 0,-1.7953776 -0.51269,-0.4896478 -1.367175,-0.4896478 -1.879864,0 L 73.487357,28.878047 c -0.51269,0.652864 -1.196277,1.305728 -1.708967,1.958592 -1.196277,0 -6.664976,0 -9.228428,-3.101105 z m -17.260579,30.03176 c 0,2.611458 -1.708967,5.059699 -5.297801,7.671156 -0.170895,-1.795378 -0.512689,-3.427538 -1.02538,-5.059698 l -0.170897,-0.489648 c -0.683587,-1.958594 -2.73435,-2.937889 -4.785111,-2.611457 -1.196279,0.163215 -2.221658,0.979295 -2.905246,1.958593 -0.683587,0.979295 -0.683587,2.285025 -0.341794,3.427538 0.512691,1.468944 0.854485,2.937889 0.854485,4.406834 l 0.170897,2.44824 c -1.879864,0.489649 -3.930626,0.816081 -5.981389,0.652866 L 25.63625,67.723475 c 0,-1.795376 -0.512689,-3.427537 -1.196277,-5.059697 -0.683588,-1.632161 -2.563453,-2.611459 -4.443317,-2.285026 -1.196278,0.163216 -2.221658,0.979296 -2.734349,1.958592 -0.512691,0.979298 -0.683587,2.121811 -0.170898,3.264323 0.341795,0.652864 0.512692,1.468945 0.341795,2.121808 V 68.37634 C 8.5465689,65.764882 3.7614581,57.277647 2.7360773,55.645485 2.906974,53.850109 4.1032518,44.220359 11.280918,38.671012 l 0.341793,0.652864 c 0.341794,0.652866 0.512691,1.468945 0.512691,2.12181 0,1.142513 0.512691,2.285026 1.367174,2.937888 0.854485,0.652865 2.050764,0.979297 3.24704,0.816082 1.879864,-0.326432 3.24704,-1.958595 3.24704,-3.75397 0,-1.795378 -0.341794,-3.427537 -0.854484,-5.059699 l -0.854484,-2.285025 c 1.879864,-0.816081 3.75973,-1.305728 5.810491,-1.468945 l 0.854484,2.285025 c 0.512692,1.468945 0.854484,2.93789 0.854484,4.406834 0,1.142513 0.683587,2.285025 1.538072,2.937891 1.02538,0.652864 2.221658,0.979294 3.417935,0.816079 2.050761,-0.326432 3.417937,-2.121809 3.417937,-4.080402 v -0.489648 c 0,-1.795377 -0.341794,-3.427537 -1.025381,-5.0597 4.272421,1.142513 6.835872,2.774675 7.861253,5.222916 1.367174,3.590755 -1.196276,7.834372 -2.221658,8.976885 L 9.5719497,53.034028 c -0.6835872,0.163217 -1.1962777,0.816081 -1.0253808,1.468944 0.1708967,0.652865 0.854484,1.142513 1.5380711,0.979298 l 29.223355,-5.386131 c 1.879866,0.979296 5.981388,3.917185 5.981388,7.671155 z M 71.949286,115.54579 H 53.321534 c -6.152286,0 -11.279189,-4.89648 -11.279189,-10.77226 V 80.291115 h 41.18613 v 24.482415 c 0,5.87578 -5.126902,10.77226 -11.279189,10.77226 z M 83.228475,77.679658 h -41.18613 v -4.896483 h 41.18613 z M 64.088033,70.171718 V 59.725887 c 0,-2.12181 0.51269,-4.080402 1.708969,-5.875778 0.170897,-0.326432 0.341793,-0.652864 0.512689,-0.979298 v 17.300907 c 0,0 -2.221658,0 -2.221658,0 z m 60.326577,1.795377 c -1.36718,1.142512 -7.86126,6.20221 -15.72251,5.712563 l 0.1709,-0.326433 c 0.17089,-0.652865 0.51269,-1.142512 1.02538,-1.632161 0.68358,-0.816081 1.19628,-1.795376 1.02538,-2.774674 -0.1709,-0.979295 -0.68358,-1.958593 -1.70897,-2.44824 -1.36717,-0.816082 -3.41793,-0.652866 -4.61421,0.489647 -1.19628,1.142513 -2.05076,2.448241 -2.73435,3.753971 l -0.85449,1.795377 c -1.538066,-0.489649 -2.905242,-1.30573 -4.272416,-2.285025 l 0.854484,-1.795377 c 0.51269,-1.142513 1.367175,-2.285025 2.221658,-3.264323 0.683594,-0.81608 1.025374,-1.795377 0.854484,-2.937889 -0.17089,-1.142513 -0.854484,-1.958593 -1.708967,-2.611459 -1.538072,-0.979294 -3.759731,-0.652862 -4.956007,0.652866 l -0.341795,0.326432 c -1.025381,1.142512 -1.879864,2.285025 -2.392555,3.590755 -1.879864,-2.93789 -2.392556,-5.386132 -1.538071,-7.344725 1.367174,-2.93789 5.468697,-4.080402 6.835872,-4.406836 l 21.703893,13.38372 c 0.68359,0.326434 1.53808,0.163217 1.87986,-0.326432 0.3418,-0.652864 0.1709,-1.468944 -0.34178,-1.795377 L 98.096498,54.339757 c -0.341793,-1.305729 -0.854482,-5.386131 1.367176,-7.671158 1.538066,-1.468943 4.101526,-2.121808 7.690356,-1.795375 -1.02538,1.142513 -1.70897,2.285025 -2.39256,3.590753 l -0.17089,0.326432 c -0.85449,1.63216 -0.17089,3.590755 1.36717,4.570051 1.02538,0.652864 2.05077,0.81608 3.24704,0.489649 1.02539,-0.326432 1.87987,-0.979298 2.39256,-1.958594 0.51269,-1.142513 1.19627,-2.285025 2.22166,-3.264321 l 1.36717,-1.468945 c 1.36717,0.652863 2.73435,1.63216 3.93063,2.774673 l -1.36717,1.468945 c -1.02539,1.142512 -1.87987,2.448242 -2.56346,3.917186 -0.68359,1.468945 0,3.264321 1.36717,4.243619 0.85449,0.489647 2.05076,0.652863 3.07615,0.326432 1.02538,-0.326432 1.87986,-0.979297 2.22166,-1.958594 0.17089,-0.652863 0.68358,-1.142512 1.02538,-1.468946 l 0.17089,-0.163215 c 3.93063,6.365429 1.87987,14.036584 1.36718,15.668746 z" /></svg>
